<?xml version="1.0" encoding="UTF-8"?><svg id="Layer_1" xmlns="http://www.w3.org/2000/svg" width="364.92" height="145.53" viewBox="0 0 364.92 145.53"><defs><style>.cls-1{letter-spacing:.08em;}.cls-2{letter-spacing:.07em;}.cls-3{letter-spacing:.06em;}.cls-4{fill:#231f20;font-family:Futura-MediumItalic, Futura;font-size:18.72px;font-style:italic;font-weight:500;}.cls-5{fill:#666766;}.cls-5,.cls-6{stroke-width:0px;}.cls-6{fill:#999;}.cls-7{letter-spacing:.07em;}</style></defs><g id="Logo"><path class="cls-5" d="m0,53.69l3.23,1.16v12.53c-1.81.18-3.23,1.72-3.23,3.57v15.11c0,1.97,1.62,3.59,3.59,3.59h5.75c1.97,0,3.59-1.62,3.59-3.59v-15.11c0-1.97-1.62-3.59-3.59-3.59h-.03v-10.34l73.36,26.22v-20.31l-54.25-19.4,54.25-19.4V3.83L0,33.38v20.31Z"/><polygon class="cls-5" points="104.08 3.83 104.08 24.14 158.33 43.54 104.08 62.93 104.08 83.24 186.74 53.69 186.74 33.38 104.08 3.83"/><polygon class="cls-6" points="157.22 70.73 157.22 90.95 98.53 112.33 98.53 65.06 93.37 66.83 88.21 64.92 88.21 112.33 29.52 90.95 29.52 70.58 19.2 66.74 19.2 87.19 19.2 95.69 19.2 97.51 93.37 124.53 167.54 97.51 167.54 94.43 167.54 87.19 167.54 66.89 157.22 70.73"/><polygon class="cls-6" points="98.53 22.16 93.37 20.31 88.21 22.16 88.21 1.85 93.37 0 98.53 1.85 98.53 22.16"/></g><path class="cls-6" d="m197.55,58.93V24.1h4.61v30.71h17.15v4.11h-21.76Z"/><path class="cls-6" d="m224.89,58.93V24.1h25.18v4.11h-20.57v10.67h19.26v4.09h-19.26v11.85h21.38v4.11h-25.99Z"/><path class="cls-6" d="m253.42,58.93l13.37-34.82h4.96l14.25,34.82h-5.25l-4.06-10.55h-14.56l-3.82,10.55h-4.89Zm10.05-14.3h11.81l-3.63-9.64c-1.11-2.93-1.93-5.34-2.47-7.22-.44,2.23-1.07,4.45-1.88,6.65l-3.82,10.21Z"/><path class="cls-6" d="m289.76,58.93V24.1h15.44c3.1,0,5.46.31,7.08.94s2.91,1.73,3.87,3.31c.97,1.58,1.45,3.33,1.45,5.25,0,2.47-.8,4.55-2.4,6.25-1.6,1.69-4.07,2.77-7.41,3.23,1.22.59,2.15,1.16,2.78,1.73,1.35,1.24,2.62,2.78,3.82,4.63l6.06,9.48h-5.8l-4.61-7.24c-1.35-2.09-2.46-3.69-3.33-4.8-.87-1.11-1.65-1.88-2.34-2.33-.69-.44-1.39-.75-2.1-.93-.52-.11-1.38-.17-2.57-.17h-5.34v15.46h-4.61Zm4.61-19.45h9.91c2.11,0,3.75-.22,4.94-.65,1.19-.43,2.09-1.13,2.71-2.09.62-.96.93-2,.93-3.12,0-1.65-.6-3-1.79-4.06-1.2-1.06-3.08-1.59-5.67-1.59h-11.02v11.52Z"/><path class="cls-6" d="m324.77,58.93V24.1h4.73l18.29,27.34v-27.34h4.42v34.82h-4.73l-18.29-27.36v27.36h-4.42Z"/><path class="cls-6" d="m266.53,101.2l-9.24-34.82h4.73l5.3,22.83c.57,2.39,1.06,4.77,1.47,7.13.89-3.72,1.41-5.87,1.57-6.44l6.63-23.52h5.56l4.99,17.63c1.25,4.37,2.15,8.48,2.71,12.33.44-2.2,1.02-4.73,1.73-7.58l5.46-22.38h4.63l-9.55,34.82h-4.44l-7.34-26.53c-.62-2.22-.98-3.58-1.09-4.08-.36,1.6-.7,2.96-1.02,4.08l-7.39,26.53h-4.7Z"/><path class="cls-6" d="m306.46,101.2v-34.82h25.18v4.11h-20.57v10.67h19.26v4.09h-19.26v11.85h21.38v4.11h-25.99Z"/><path class="cls-6" d="m338.63,101.2v-34.82h13.07c2.66,0,4.79.35,6.4,1.06,1.61.7,2.87,1.79,3.78,3.25.91,1.47,1.37,3,1.37,4.6,0,1.49-.4,2.89-1.21,4.2-.81,1.31-2.03,2.38-3.66,3.18,2.11.62,3.73,1.67,4.86,3.16,1.13,1.49,1.7,3.25,1.7,5.27,0,1.63-.34,3.15-1.03,4.55-.69,1.4-1.54,2.48-2.55,3.24-1.01.76-2.28,1.33-3.81,1.72s-3.4.58-5.62.58h-13.28Zm4.61-20.19h7.53c2.04,0,3.51-.13,4.39-.4,1.17-.35,2.05-.93,2.65-1.73.59-.81.89-1.82.89-3.04,0-1.16-.28-2.17-.83-3.05-.55-.88-1.35-1.48-2.38-1.81-1.03-.32-2.79-.49-5.3-.49h-6.96v10.52Zm0,16.08h8.67c1.49,0,2.53-.05,3.14-.17,1.06-.19,1.95-.51,2.66-.95.71-.44,1.3-1.09,1.76-1.94s.69-1.83.69-2.93c0-1.3-.33-2.43-1-3.39-.67-.96-1.59-1.63-2.77-2.02s-2.88-.58-5.1-.58h-8.05v11.97Z"/><path class="cls-5" d="m194.5,76.88l-9.15-1.64c.76-2.91,2.22-5.15,4.38-6.7s5.22-2.33,9.18-2.33c4.55,0,7.83.85,9.86,2.54s3.04,3.82,3.04,6.39c0,1.5-.41,2.87-1.24,4.08-.82,1.22-2.07,2.29-3.73,3.21,1.35.33,2.37.72,3.09,1.16,1.16.71,2.05,1.65,2.7,2.82.64,1.16.96,2.55.96,4.17,0,2.03-.53,3.97-1.59,5.83s-2.59,3.29-4.58,4.3-4.62,1.51-7.86,1.51-5.66-.37-7.49-1.12c-1.83-.74-3.33-1.83-4.51-3.27s-2.09-3.23-2.72-5.4l9.67-1.28c.38,1.95.97,3.3,1.77,4.05s1.82,1.13,3.05,1.13c1.3,0,2.38-.47,3.24-1.43.86-.95,1.29-2.22,1.29-3.8s-.41-2.87-1.25-3.75c-.83-.89-1.96-1.33-3.39-1.33-.76,0-1.81.19-3.14.57l.5-6.91c.54.08.96.12,1.26.12,1.27,0,2.32-.4,3.17-1.21.85-.81,1.27-1.77,1.27-2.87s-.32-1.91-.95-2.54c-.63-.63-1.5-.95-2.61-.95s-2.07.34-2.78,1.03c-.71.69-1.2,1.9-1.45,3.62Z"/><path class="cls-5" d="m219.27,66.81h15.99c3.15,0,5.7.43,7.64,1.28,1.94.85,3.54,2.08,4.81,3.68,1.27,1.6,2.19,3.46,2.76,5.58.57,2.12.86,4.37.86,6.75,0,3.72-.42,6.61-1.27,8.66-.85,2.05-2.02,3.77-3.53,5.15-1.5,1.39-3.12,2.31-4.85,2.77-2.36.63-4.5.95-6.41.95h-15.99v-34.82Zm10.76,7.89v19.03h2.64c2.25,0,3.85-.25,4.8-.75.95-.5,1.69-1.37,2.23-2.61.54-1.24.81-3.26.81-6.05,0-3.69-.6-6.22-1.81-7.58-1.2-1.36-3.2-2.04-5.99-2.04h-2.68Z"/><text class="cls-4" transform="translate(13.09 139.94)"><tspan class="cls-2" x="0" y="0">Lea</tspan><tspan class="cls-1" x="34.05" y="0">r</tspan><tspan class="cls-2" x="42.8" y="0">n a n</tspan><tspan class="cls-3" x="93.26" y="0">e</tspan><tspan class="cls-2" x="104.9" y="0">w dimension of </tspan><tspan class="cls-1" x="260.06" y="0">t</tspan><tspan class="cls-2" x="267.15" y="0">he </tspan><tspan class="cls-7" x="297.98" y="0">w</tspan><tspan class="cls-2" x="312.85" y="0">eb!</tspan></text></svg>